HIERARCHY
ROOT root
{
	OFFSET	0	13.1	24.9
	CHANNELS 6  Xposition Yposition Zposition Xrotation Yrotation Zrotation
	JOINT spine_1
	{
		OFFSET	0	9.99999	0
		CHANNELS 3  Xrotation Yrotation Zrotation
		JOINT spine_2
		{
			OFFSET	0	112	-10
			CHANNELS 3  Xrotation Yrotation Zrotation
			JOINT spine_3
			{
				OFFSET	0	206.5	19.3
				CHANNELS 3  Xrotation Yrotation Zrotation
				JOINT spine_4
				{
					OFFSET	0	110.4	14.6
					CHANNELS 3  Xrotation Yrotation Zrotation
					JOINT neck_1
					{
						OFFSET	0	71.8	-50.3
						CHANNELS 3  Xrotation Yrotation Zrotation
						JOINT neck_2
						{
							OFFSET	0	86.2	-25.8
							CHANNELS 3  Xrotation Yrotation Zrotation
							JOINT head_ee
							{
								OFFSET	0	179.8	-8.7
								CHANNELS 3  Xrotation Yrotation Zrotation
								End Site
								{
									OFFSET	1	0	0
								}
							}
						}
					}
					JOINT left_clavicle
					{
						OFFSET	-43.2	22.4	-70.8
						CHANNELS 3  Xrotation Yrotation Zrotation
						JOINT left_shoulder
						{
							OFFSET	-93.9	-5.79999	48.7
							CHANNELS 3  Xrotation Yrotation Zrotation
							JOINT left_elbow
							{
								OFFSET	-291.4	-30.8	15.2
								CHANNELS 3  Xrotation Yrotation Zrotation
								JOINT left_lowarm_twist
								{
									OFFSET	-110.7	-3.89999	13.6
									CHANNELS 3  Xrotation Yrotation Zrotation
									JOINT left_hand
									{
										OFFSET	-110.7	-3.89999	13.6
										CHANNELS 3  Xrotation Yrotation Zrotation
										JOINT left_ee
										{
											OFFSET	-80.8	-5.10001	12.1
											CHANNELS 3  Xrotation Yrotation Zrotation
											End Site
											{
												OFFSET	1	0	0
											}
										}
									}
								}
							}
						}
					}
					JOINT right_clavicle
					{
						OFFSET	43.2	22.4	-70.8
						CHANNELS 3  Xrotation Yrotation Zrotation
						JOINT right_shoulder
						{
							OFFSET	93.9	-5.79999	48.7
							CHANNELS 3  Xrotation Yrotation Zrotation
							JOINT right_elbow
							{
								OFFSET	291.4	-30.8	15.2
								CHANNELS 3  Xrotation Yrotation Zrotation
								JOINT right_lowarm_twist
								{
									OFFSET	110.7	-3.89999	13.6
									CHANNELS 3  Xrotation Yrotation Zrotation
									JOINT right_hand
									{
										OFFSET	110.7	-3.89999	13.6
										CHANNELS 3  Xrotation Yrotation Zrotation
										JOINT right_ee
										{
											OFFSET	80.8	-5.10001	12.1
											CHANNELS 3  Xrotation Yrotation Zrotation
											End Site
											{
												OFFSET	1	0	0
											}
										}
									}
								}
							}
						}
					}
				}
			}
		}
	}
	JOINT left_hip
	{
		OFFSET	-82.8	-127.5	0.300001
		CHANNELS 3  Xrotation Yrotation Zrotation
		JOINT left_knee
		{
			OFFSET	-28.2	-396.7	2.2
			CHANNELS 3  Xrotation Yrotation Zrotation
			JOINT left_ankle
			{
				OFFSET	-11.7	-411.3	35.4
				CHANNELS 3  Xrotation Yrotation Zrotation
				JOINT left_toes
				{
					OFFSET	0	-60	-88.6
					CHANNELS 3  Xrotation Yrotation Zrotation
					JOINT left_foot_ee
					{
						OFFSET	-22.5	-16.5	-42.2
						CHANNELS 3  Xrotation Yrotation Zrotation
						End Site
						{
							OFFSET	1	0	0
						}
					}
				}
			}
		}
	}
	JOINT right_hip
	{
		OFFSET	82.8	-127.5	0.300001
		CHANNELS 3  Xrotation Yrotation Zrotation
		JOINT right_knee
		{
			OFFSET	28.2	-396.7	2.2
			CHANNELS 3  Xrotation Yrotation Zrotation
			JOINT right_ankle
			{
				OFFSET	11.7	-411.3	35.4
				CHANNELS 3  Xrotation Yrotation Zrotation
				JOINT right_toes
				{
					OFFSET	0	-60	-88.6
					CHANNELS 3  Xrotation Yrotation Zrotation
					JOINT right_foot_ee
					{
						OFFSET	22.5	-16.5	-42.2
						CHANNELS 3  Xrotation Yrotation Zrotation
						End Site
						{
							OFFSET	1	0	0
						}
					}
				}
			}
		}
	}
}
MOTION
Frames: 13
Frame Time: 0.02
829.345914318 626.254 -1938.92938587 -9.48298023517 5.91510991979 3.55032944364 4.60247 -0.185001 -0.799418 4.60282 -0.133759 -0.809569 4.60445 -0.0265467 -0.820114 4.60355 -0.155731 -0.805631 -9.51255 7.39384 5.16316 -9.47145 10.3666 6.82555 -0.0 0.0 -0.0 4.71378 0.319365 9.11485 -60.4245 -70.8195 11.2434 0.515872 -14.3352 0.0648739 28.2558 0.116962 -3.5712 -2.5319 -27.9292 -28.9307 -0.0 0.0 -0.0 7.83246 12.1556 -15.0741 -41.0064 47.6944 -62.5631 0.335147 9.42659 -0.0276325 -11.1208 0.521827 -1.32039 3.80523 27.8863 -12.5865 0.0 0.0 0.0 24.1386 7.12589 2.43277 -9.24772 0.268884 1.39223 32.0983 26.9206 -4.39886 16.3307 -0.0 -0.0 -0.0 0.0 -0.0 46.78 16.6008 -12.771 -72.0636 3.63331 -9.70941 32.1314 -10.0327 4.12225 -40.3864 0.0 0.0 0.0 0.0 0.0 
820.924757926 624.683 -1940.72042926 -9.43317920966 6.37039794253 4.14058209222 4.5322 -0.243203 -0.831189 4.53256 -0.189821 -0.844979 4.5351 -0.0764492 -0.862656 4.53412 -0.211725 -0.839758 -9.54254 7.36771 5.17094 -9.5012 10.3162 6.82912 -0.0 0.0 -0.0 4.96409 0.704091 9.61351 -60.2851 -71.3447 10.7367 0.534622 -14.8336 0.0695953 28.0063 0.12366 -3.54003 -2.59243 -28.1283 -29.4301 -0.0 0.0 -0.0 7.49062 11.3497 -14.3751 -40.9857 47.795 -63.5225 0.346915 9.7513 -0.0295927 -10.9434 0.511509 -1.30017 3.8143 27.7615 -12.7155 0.0 0.0 0.0 24.2234 7.43254 2.79663 -9.39881 0.271401 1.41528 32.1941 26.7974 -4.40611 16.5109 -0.0 -0.0 -0.0 0.0 -0.0 47.5626 16.5824 -13.1704 -70.7049 3.45977 -9.59137 31.8054 -9.89992 4.08768 -40.2166 0.0 0.0 0.0 0.0 0.0 
784.60277557 627.818 -1923.26041938 -11.2568530835 12.8696541951 6.3644065401 4.66904 -0.052424 -0.883918 4.66947 0.00392596 -0.885462 4.66908 0.118921 -0.87745 4.668 -0.0211431 -0.885218 -9.40679 6.66841 3.79899 -9.39518 9.92334 5.31371 -0.0 0.0 -0.0 5.70532 1.58722 11.069 -60.7925 -71.787 10.7546 0.374156 -10.5006 0.0343823 28.3592 0.114145 -3.58412 -2.88854 -27.6012 -31.4013 -0.0 0.0 -0.0 7.59491 9.88638 -14.6535 -38.679 47.312 -60.3315 0.398594 11.1697 -0.0389761 -10.4677 0.484158 -1.24581 3.86458 27.8131 -13.0129 0.0 0.0 0.0 22.546 7.87102 1.9601 -6.54639 0.213651 0.981416 33.4488 27.2928 -4.56176 20.9761 -0.0 -0.0 -0.0 0.0 -0.0 47.5968 15.4691 -13.0417 -55.2771 1.71215 -7.98494 26.8381 -10.1138 3.54793 -40.3163 0.0 0.0 0.0 0.0 0.0 
783.930680794 627.818 -1922.54178525 -11.2640421833 13.0267013621 6.39649072475 4.66904 -0.052424 -0.883918 4.66947 0.00392596 -0.885462 4.66908 0.118921 -0.87745 4.668 -0.0211431 -0.885218 -9.40679 6.66841 3.79899 -9.39518 9.92334 5.31371 -0.0 0.0 -0.0 5.70532 1.58722 11.069 -60.7925 -71.787 10.7546 0.374156 -10.5006 0.0343823 28.3592 0.114145 -3.58412 -2.88854 -27.6012 -31.4013 -0.0 0.0 -0.0 7.59491 9.88638 -14.6535 -38.679 47.312 -60.3315 0.398594 11.1697 -0.0389761 -10.4677 0.484158 -1.24581 3.86458 27.8131 -13.0129 0.0 0.0 0.0 22.546 7.87102 1.9601 -6.54639 0.213651 0.981416 33.4488 27.2928 -4.56176 20.9761 -0.0 -0.0 -0.0 0.0 -0.0 47.5968 15.4691 -13.0417 -55.2771 1.71215 -7.98494 26.8381 -10.1138 3.54793 -40.3163 0.0 0.0 0.0 0.0 0.0 
770.777373533 634.56 -1915.43344802 -11.3615714628 13.9152957969 6.07555111775 4.7243 0.064636 -0.630864 4.72452 0.104648 -0.625473 4.72321 0.184443 -0.606753 4.72271 0.0863054 -0.628266 -9.4977 6.48228 2.94882 -9.5035 10.1649 4.44686 -0.0 0.0 -0.0 5.93401 2.20143 11.5181 -60.7906 -72.3255 11.0715 0.370139 -10.3903 0.0336539 28.5855 0.107901 -3.61235 -2.863 -27.5087 -31.1842 -0.0 0.0 -0.0 6.12881 9.74482 -11.5631 -37.8741 47.6826 -62.453 0.456178 12.7339 -0.0509023 -10.6487 0.494512 -1.26652 3.86599 27.8496 -13.0013 0.0 0.0 0.0 21.4213 8.05344 2.16148 -5.04903 0.174707 0.754931 31.6663 27.5364 -4.36781 22.4993 -0.0 -0.0 -0.0 0.0 -0.0 46.1015 11.1199 -12.6246 -44.7369 0.795295 -6.6483 23.2291 -9.96537 3.12752 -40.1705 0.0 0.0 0.0 0.0 0.0 
771.851440425 634.56 -1916.67508948 -11.3488463816 13.6570512039 6.02215163738 4.7243 0.064636 -0.630864 4.72452 0.104648 -0.625473 4.72321 0.184443 -0.606753 4.72271 0.0863054 -0.628266 -9.4977 6.48228 2.94882 -9.5035 10.1649 4.44686 -0.0 0.0 -0.0 5.93401 2.20143 11.5181 -60.7906 -72.3255 11.0715 0.370139 -10.3903 0.0336539 28.5855 0.107901 -3.61235 -2.863 -27.5087 -31.1842 -0.0 0.0 -0.0 6.12881 9.74482 -11.5631 -37.8741 47.6826 -62.453 0.456178 12.7339 -0.0509023 -10.6487 0.494512 -1.26652 3.86599 27.8496 -13.0013 0.0 0.0 0.0 21.4213 8.05344 2.16148 -5.04903 0.174707 0.754931 31.6663 27.5364 -4.36781 22.4993 -0.0 -0.0 -0.0 0.0 -0.0 46.1015 11.1199 -12.6246 -44.7369 0.795295 -6.6483 23.2291 -9.96537 3.12752 -40.1705 0.0 0.0 0.0 0.0 0.0 
728.046192439 637.437 -1913.01374911 -12.94356772 24.0904987879 9.44054050953 5.71419 0.0186431 -0.191066 5.71421 0.0307633 -0.189492 5.71409 0.0517543 -0.184865 5.71404 0.0219088 -0.190719 -4.99468 6.25805 -2.10387 -4.93489 13.0837 -1.06523 -0.0 0.0 -0.0 4.11863 11.3315 8.33068 -62.7204 -72.4041 12.4129 0.55298 -15.3194 0.0743704 31.402 0.0208986 -3.96154 -2.28971 -27.582 -27.0926 -0.0 0.0 -0.0 4.59942 9.66746 -8.37304 -27.6513 46.2339 -75.3341 0.555889 15.3962 -0.0751409 -9.2207 0.414615 -1.10225 4.49024 27.7444 -17.146 0.0 0.0 0.0 21.3454 15.7365 -0.336365 -9.45526 0.272325 1.42389 21.6109 27.3704 -3.12339 30.4385 -0.0 -0.0 -0.0 0.0 -0.0 39.0982 -8.0064 -8.7793 -32.6847 0.0680945 -4.94813 24.9669 -3.38597 3.33228 -33.456 0.0 0.0 0.0 0.0 0.0 
727.356878727 637.437 -1912.07409603 -12.9608348067 24.2577560169 9.48270558662 5.71419 0.0186431 -0.191066 5.71421 0.0307633 -0.189492 5.71409 0.0517543 -0.184865 5.71404 0.0219088 -0.190719 -4.99468 6.25805 -2.10387 -4.93489 13.0837 -1.06523 -0.0 0.0 -0.0 4.11863 11.3315 8.33068 -62.7204 -72.4041 12.4129 0.55298 -15.3194 0.0743704 31.402 0.0208986 -3.96154 -2.28971 -27.582 -27.0926 -0.0 0.0 -0.0 4.59942 9.66746 -8.37304 -27.6513 46.2339 -75.3341 0.555889 15.3962 -0.0751409 -9.2207 0.414615 -1.10225 4.49024 27.7444 -17.146 0.0 0.0 0.0 21.3454 15.7365 -0.336365 -9.45526 0.272325 1.42389 21.6109 27.3704 -3.12339 30.4385 -0.0 -0.0 -0.0 0.0 -0.0 39.0982 -8.0064 -8.7793 -32.6847 0.0680945 -4.94813 24.9669 -3.38597 3.33228 -33.456 0.0 0.0 0.0 0.0 0.0 
727.62135671 637.437 -1912.4353231 -12.954182737 24.1935028318 9.4664941168 5.71419 0.0186431 -0.191066 5.71421 0.0307633 -0.189492 5.71409 0.0517543 -0.184865 5.71404 0.0219088 -0.190719 -4.99468 6.25805 -2.10387 -4.93489 13.0837 -1.06523 -0.0 0.0 -0.0 4.11863 11.3315 8.33068 -62.7204 -72.4041 12.4129 0.55298 -15.3194 0.0743704 31.402 0.0208986 -3.96154 -2.28971 -27.582 -27.0926 -0.0 0.0 -0.0 4.59942 9.66746 -8.37304 -27.6513 46.2339 -75.3341 0.555889 15.3962 -0.0751409 -9.2207 0.414615 -1.10225 4.49024 27.7444 -17.146 0.0 0.0 0.0 21.3454 15.7365 -0.336365 -9.45526 0.272325 1.42389 21.6109 27.3704 -3.12339 30.4385 -0.0 -0.0 -0.0 0.0 -0.0 39.0982 -8.0064 -8.7793 -32.6847 0.0680945 -4.94813 24.9669 -3.38597 3.33228 -33.456 0.0 0.0 0.0 0.0 0.0 
728.967823635 637.437 -1914.26093904 -12.9208338065 23.8679111139 9.38460156643 5.71419 0.0186431 -0.191066 5.71421 0.0307633 -0.189492 5.71409 0.0517543 -0.184865 5.71404 0.0219088 -0.190719 -4.99468 6.25805 -2.10387 -4.93489 13.0837 -1.06523 -0.0 0.0 -0.0 4.11863 11.3315 8.33068 -62.7204 -72.4041 12.4129 0.55298 -15.3194 0.0743704 31.402 0.0208986 -3.96154 -2.28971 -27.582 -27.0926 -0.0 0.0 -0.0 4.59942 9.66746 -8.37304 -27.6513 46.2339 -75.3341 0.555889 15.3962 -0.0751409 -9.2207 0.414615 -1.10225 4.49024 27.7444 -17.146 0.0 0.0 0.0 21.3454 15.7365 -0.336365 -9.45526 0.272325 1.42389 21.6109 27.3704 -3.12339 30.4385 -0.0 -0.0 -0.0 0.0 -0.0 39.0982 -8.0064 -8.7793 -32.6847 0.0680945 -4.94813 24.9669 -3.38597 3.33228 -33.456 0.0 0.0 0.0 0.0 0.0 
728.255126421 637.437 -1913.29740036 -12.9383788258 24.0399344747 9.42781565351 5.71419 0.0186431 -0.191066 5.71421 0.0307633 -0.189492 5.71409 0.0517543 -0.184865 5.71404 0.0219088 -0.190719 -4.99468 6.25805 -2.10387 -4.93489 13.0837 -1.06523 -0.0 0.0 -0.0 4.11863 11.3315 8.33068 -62.7204 -72.4041 12.4129 0.55298 -15.3194 0.0743704 31.402 0.0208986 -3.96154 -2.28971 -27.582 -27.0926 -0.0 0.0 -0.0 4.59942 9.66746 -8.37304 -27.6513 46.2339 -75.3341 0.555889 15.3962 -0.0751409 -9.2207 0.414615 -1.10225 4.49024 27.7444 -17.146 0.0 0.0 0.0 21.3454 15.7365 -0.336365 -9.45526 0.272325 1.42389 21.6109 27.3704 -3.12339 30.4385 -0.0 -0.0 -0.0 0.0 -0.0 39.0982 -8.0064 -8.7793 -32.6847 0.0680945 -4.94813 24.9669 -3.38597 3.33228 -33.456 0.0 0.0 0.0 0.0 0.0 
731.013251332 637.437 -1916.99227478 -12.871779017 23.3780556556 9.26218505736 5.71419 0.0186431 -0.191066 5.71421 0.0307633 -0.189492 5.71409 0.0517543 -0.184865 5.71404 0.0219088 -0.190719 -4.99468 6.25805 -2.10387 -4.93489 13.0837 -1.06523 -0.0 0.0 -0.0 4.11863 11.3315 8.33068 -62.7204 -72.4041 12.4129 0.55298 -15.3194 0.0743704 31.402 0.0208986 -3.96154 -2.28971 -27.582 -27.0926 -0.0 0.0 -0.0 4.59942 9.66746 -8.37304 -27.6513 46.2339 -75.3341 0.555889 15.3962 -0.0751409 -9.2207 0.414615 -1.10225 4.49024 27.7444 -17.146 0.0 0.0 0.0 21.3454 15.7365 -0.336365 -9.45526 0.272325 1.42389 21.6109 27.3704 -3.12339 30.4385 -0.0 -0.0 -0.0 0.0 -0.0 39.0982 -8.0064 -8.7793 -32.6847 0.0680945 -4.94813 24.9669 -3.38597 3.33228 -33.456 0.0 0.0 0.0 0.0 0.0 
720.447751055 629.645 -1925.48319682 -12.5042979374 24.0980607136 8.51173017582 5.60677 -0.138922 -0.00948736 5.60676 -0.138037 -0.0183081 5.60682 -0.135062 -0.0338776 5.60684 -0.138717 -0.0121219 -3.94895 6.3418 -2.21016 -3.86516 13.2814 -1.27992 -0.0 0.0 -0.0 3.457 13.2243 7.26335 -60.99 -71.891 14.6261 0.610621 -16.8299 0.0903322 32.6568 -0.0233735 -4.11567 -1.6844 -27.4773 -22.8447 -0.0 0.0 -0.0 3.96692 9.03372 -7.10453 -27.2278 46.9355 -76.2761 0.574457 15.8849 -0.080147 -8.72307 0.38774 -1.04455 4.535 28.3692 -17.0632 0.0 0.0 0.0 22.8 18.3178 0.484743 -14.1197 0.319332 2.13785 22.6359 26.6824 -3.24299 32.4988 -0.0 -0.0 -0.0 0.0 -0.0 36.8348 -7.43842 -9.65162 -34.7972 0.169362 -5.25638 27.5706 -4.78484 3.62428 -30.8324 0.0 0.0 0.0 0.0 0.0 
